<?xml version="1.0" standalone="no"?>
<!DOCTYPE svg PUBLIC "-//W3C//DTD SVG 20010904//EN"
 "http://www.w3.org/TR/2001/REC-SVG-20010904/DTD/svg10.dtd">
<svg version="1.0" xmlns="http://www.w3.org/2000/svg"
 width="512.000000pt" height="512.000000pt" viewBox="0 0 512.000000 512.000000"
 preserveAspectRatio="xMidYMid meet">

<g transform="translate(0.000000,512.000000) scale(0.100000,-0.100000)"
fill="#000000" stroke="none">
<path d="M455 4948 c-38 -21 -45 -40 -45 -128 0 -77 2 -89 23 -107 12 -11 32
-24 45 -28 l22 -6 0 -1315 0 -1314 278 2 277 3 3 1312 2 1313 25 6 c48 12 65
48 65 136 0 75 -2 81 -29 109 l-29 29 -309 0 c-203 -1 -315 -4 -328 -12z"/>
<path d="M1307 4389 c-29 -17 -47 -65 -47 -129 0 -76 19 -115 65 -131 l35 -13
0 -1033 0 -1033 185 0 185 0 0 446 0 446 29 29 c27 26 36 29 95 29 l66 0 0
560 c0 503 2 560 16 560 8 0 29 13 45 29 27 28 29 34 29 111 0 77 -2 83 -29
111 l-29 29 -314 0 c-194 0 -320 -4 -331 -11z"/>
<path d="M4294 3574 c-17 -8 -36 -26 -43 -40 -7 -17 -11 -111 -11 -279 l0
-255 211 0 211 0 29 -29 29 -29 0 -190 0 -190 34 -68 c66 -136 128 -358 169
-611 l23 -138 23 85 c71 261 97 477 88 753 -11 332 -67 595 -194 900 l-45 107
-246 0 c-202 0 -253 -3 -278 -16z"/>
<path d="M2226 2634 l-26 -27 0 -222 0 -222 200 40 200 40 0 169 c0 179 -8
215 -49 238 -11 5 -82 10 -159 10 -137 0 -140 0 -166 -26z"/>
<path d="M2839 2631 l-29 -29 0 -156 c0 -86 3 -156 8 -156 4 -1 94 16 200 37
l192 37 0 119 c0 118 0 119 -29 148 l-29 29 -142 0 -142 0 -29 -29z"/>
<path d="M3467 2649 c-33 -19 -47 -64 -47 -154 0 -61 3 -85 13 -85 6 1 95 18
197 38 l185 38 3 60 c3 54 0 63 -24 87 -26 27 -28 27 -168 27 -77 0 -149 -5
-159 -11z"/>
<path d="M4068 2637 c-22 -20 -46 -92 -35 -103 6 -6 371 68 382 78 6 6 2 16
-14 29 -20 17 -40 19 -166 19 -135 0 -143 -1 -167 -23z"/>
<path d="M4190 2164 c-63 -13 -125 -26 -137 -29 -21 -5 -23 -11 -23 -70 0 -36
2 -65 4 -65 9 0 221 41 237 46 10 3 20 27 28 70 8 36 12 66 10 68 -2 1 -56 -8
-119 -20z"/>
<path d="M3665 2059 c-77 -16 -164 -34 -192 -40 l-53 -10 0 -65 c0 -35 3 -64
8 -64 4 -1 94 16 200 37 l192 37 0 68 c0 37 -3 68 -7 67 -5 -1 -71 -14 -148
-30z"/>
<path d="M3008 1928 l-198 -41 0 -63 c0 -54 3 -64 18 -64 9 0 99 16 200 37
l182 37 0 68 c0 37 -1 68 -2 67 -2 -1 -92 -19 -200 -41z"/>
<path d="M4135 1887 l-100 -22 -3 -156 c-3 -187 6 -225 58 -251 21 -11 58 -18
91 -18 l56 0 -5 113 c-4 99 9 289 24 340 6 21 5 21 -121 -6z"/>
<path d="M530 1834 c-79 -21 -166 -64 -236 -117 -91 -69 -89 -65 -58 -144 77
-196 222 -443 367 -628 l67 -85 803 2 803 3 37 25 c53 36 77 86 77 157 0 83
-22 140 -84 215 -72 87 -128 113 -246 113 -78 0 -92 -3 -155 -35 -39 -19 -73
-35 -77 -35 -3 0 -20 18 -38 40 -100 126 -285 186 -436 140 -27 -8 -53 -15
-59 -15 -5 0 -19 19 -30 43 -11 23 -60 83 -110 133 -74 75 -105 99 -175 133
-47 23 -116 48 -155 56 -88 19 -224 18 -295 -1z"/>
<path d="M2428 1812 l-128 -26 0 -68 c0 -66 1 -68 23 -63 28 7 269 55 273 55
2 0 4 29 4 65 0 77 13 75 -172 37z"/>
<path d="M3605 1781 l-180 -37 -3 -109 c-2 -126 6 -151 58 -177 40 -21 209
-25 272 -8 63 18 68 34 68 212 0 144 -2 158 -17 157 -10 -1 -99 -18 -198 -38z"/>
<path d="M3000 1659 c-102 -21 -186 -38 -187 -39 -2 0 -3 -25 -3 -55 0 -46 4
-60 29 -87 l29 -33 142 0 142 0 29 33 c28 31 29 36 29 127 0 70 -3 95 -12 94
-7 -1 -96 -18 -198 -40z"/>
<path d="M2438 1548 l-148 -31 0 -38 0 -39 108 0 c119 0 167 15 189 60 14 27
17 81 6 79 -5 -1 -74 -15 -155 -31z"/>
<path d="M4613 1431 c-73 -19 -167 -81 -204 -135 l-22 -33 -50 31 c-47 29 -56
31 -146 31 -86 0 -101 -3 -141 -27 -97 -57 -153 -148 -154 -250 -1 -62 15 -93
68 -132 27 -21 38 -21 500 -21 l472 0 36 24 c19 13 46 40 59 59 21 31 24 47
23 116 -1 102 -24 157 -100 236 -70 74 -132 102 -234 106 -41 2 -89 -1 -107
-5z"/>
</g>
</svg>
